PathFileType	4	(X/Y/Z)	T1_P1_NoVision_Movement_0_0-662.trc
DataRate	CameraRate	NumFrames	NumMarkers	Units	OrigDataRate	OrigDataStartFrame	OrigNumFrames
60	60	4	27	m	60	331	662
Frame#	Time	RHip			RKnee			RAnkle			RBigToe			RSmallToe			RHeel			LHip			LKnee			LAnkle			LBigToe			LSmallToe			LHeel			Neck			Head			Nose			RShoulder			RElbow			RWrist			RThumb			RIndex			RPinky			LShoulder			LElbow			LWrist			LThumb			LIndex			LPinky		
		X1	Y1	Z1	X2	Y2	Z2	X3	Y3	Z3	X4	Y4	Z4	X5	Y5	Z5	X6	Y6	Z6	X7	Y7	Z7	X8	Y8	Z8	X9	Y9	Z9	X10	Y10	Z10	X11	Y11	Z11	X12	Y12	Z12	X13	Y13	Z13	X14	Y14	Z14	X15	Y15	Z15	X16	Y16	Z16	X17	Y17	Z17	X18	Y18	Z18	X19	Y19	Z19	X20	Y20	Z20	X21	Y21	Z21	X22	Y22	Z22	X23	Y23	Z23	X24	Y24	Z24	X25	Y25	Z25	X26	Y26	Z26	X27	Y27	Z27
332	5.533333333333333	-79.24780361836575	3920.8527137035067	-589.4960985098153	273.9174642373966	4000.950919703074	-525.1475675881906	624.6171170267448	4147.992497256245	-523.4998714429115	690.4876053656557	4092.8020772696727	-477.7824542227007	706.3731755720675	4121.946058384821	-557.3229290241908	655.9166242963146	4193.222797832188	-531.5728679363594	-109.73646904044749	3910.3592136343123	-348.37014381937496	233.69559289790556	4011.94555781779	-353.347123164997	570.9505959618705	4190.595819930208	-383.4661777164874	674.2436001121094	4185.6277483229605	-352.38018453660095	644.748605912362	4251.88781066296	-341.40976590143174	605.1374202564837	4234.764876593544	-410.415687071306	-679.3063804481357	3733.3312423959296	-476.51982718767795	-909.4327866506184	3549.1929250520593	-417.23314486623894	-749.9885062627911	3590.1062563572464	-404.15491296233745	-573.1429331330704	3647.9839691802504	-583.2316641978429	-334.548775650193	3631.3733730274594	-663.1080764245128	-487.2654584126177	3374.216986463988	-443.9339220636978	-576.9544886710643	3431.0088056896393	-431.30862995324384	-577.9865375029368	3405.971196410621	-405.99744442410184	-544.0578393847094	3365.485309387893	-395.75164233387807	-637.6463149172313	3866.6301764477953	-362.6966646263541	-406.6644750081448	3995.5896264660096	-321.4910252144271	-134.65740011414636	3992.327931023723	-243.16810492481073	-1.6665096718491257	4004.0965787678856	-241.26170285686868	18.67444998664183	3990.994653969953	-221.42226208226242	2.5306637156469147	4036.311755789918	-221.6293785581603
333	5.55	-78.81516980833007	3892.535468474109	-582.3118346509497	273.97714190239327	4001.4270652752184	-525.3464378671457	624.5333784387105	4148.331736254684	-523.6268541076647	690.2824745997494	4092.3250768438293	-477.6462736753816	699.6390791442001	4117.533109333215	-555.0682069831852	655.9214449590361	4193.5863600089015	-531.7011097146326	-109.70833504006278	3910.4164381876794	-348.4132980058234	233.61912086932048	4011.9869728539707	-353.3867165767573	577.5598842875113	4194.5664266259055	-382.92821578423275	680.1591858302121	4188.360018612421	-351.4141165160263	645.0214872314631	4251.3213078154795	-341.1123227954168	605.5429250504719	4235.672491812206	-410.6967197550672	-679.3418340066085	3733.2055430496257	-476.48634401282413	-909.4692828925201	3549.153849783083	-417.21377492769557	-754.8583010726538	3589.105164336024	-404.5446995410961	-573.1266063817444	3647.7155837648056	-583.14035308458	-334.4548330268742	3630.9607258756323	-662.9269625671329	-485.8297571849085	3358.9213269720262	-431.2627319088558	-577.133468421403	3431.7600511143382	-431.64100448675026	-581.2728182301017	3404.1794972938183	-404.9198327957914	-544.4766738553765	3365.9838454042847	-395.7874546900365	-637.7246469384377	3866.7289746443475	-362.67277791773716	-406.778331408556	3995.6918640879735	-321.6133564232339	-134.87103469739742	3992.375133234268	-243.15079936997478	-6.245231262422124	4000.429096513636	-239.63490592248138	18.263279980602864	3991.2278418638016	-221.639052254101	2.178364696993656	4036.546498160662	-221.86688414301713
334	5.566666666666666	-78.75472028377982	3892.5587621396276	-582.3153657909932	274.08606935441765	4001.695954685168	-525.5468129632544	624.5126069287045	4148.4436823723445	-523.7777721119487	690.3034906414498	4092.6684023314433	-477.8465657586259	699.6030145321457	4117.751950404448	-555.1982360075847	655.7893433798312	4193.464047826878	-531.7317125983611	-104.72889375794334	3914.013649082654	-349.871056598328	233.66795614275864	4012.5215634432816	-353.5357606404699	577.5043155118083	4194.356832839304	-382.77956136965287	680.1655492564864	4188.3386006780875	-351.42178583054107	645.1111395094835	4251.4087546821675	-341.15553736098684	605.3315717494963	4235.0736702938975	-410.424959474049	-679.3477433832506	3733.1589596654535	-476.4739202267522	-909.4781128524598	3549.0321070819964	-417.16588675928335	-752.1765480969386	3572.4775193810756	-391.74267444716094	-573.0965573905347	3647.598509860005	-583.0776143863651	-333.7965840229799	3613.521346298767	-648.6487497665662	-490.48928618695317	3356.1521803936025	-430.1654442150128	-577.2456508066906	3433.0348011275296	-433.25940276985017	-581.0771436236715	3405.400932981049	-406.71217333427705	-544.4466081961169	3366.3020553508895	-396.29053773213633	-637.6590914086328	3866.714112768929	-362.64445668715166	-406.66882289882665	3995.633099023238	-321.5742220559981	-134.70583356593752	3992.4318106959413	-243.17606007570927	-6.199665631512107	4001.3633003205155	-240.19585502483372	18.186503156363457	3991.84611393511	-222.03336644672294	2.2976835422139645	4037.027960602908	-221.97001562164445
335	5.583333333333333	-83.82365786500442	3890.77292766219	-582.8126286588383	274.7337112286299	4002.620205706472	-531.9315381912861	624.4165959259738	4148.005886247987	-523.5904700151165	690.5495871255008	4092.010477848804	-477.3356263575769	695.9465864568426	4068.1098200094616	-534.3423867874361	655.8532665060419	4193.1921546584035	-531.6991598300586	-104.80161287397627	3913.945927552417	-349.8717345972348	233.55992927573362	4012.1856506737236	-353.44375958367164	577.6742868901498	4195.192695009218	-383.10946718126206	675.1989907702641	4189.5597957600385	-352.1972891397192	651.2334384482959	4255.010228475594	-340.4376509365976	610.5633290444625	4257.844675711534	-424.8926213031285	-683.7068217060126	3730.661289092016	-475.6161294376051	-909.4373381031714	3548.987412489173	-417.1429219330247	-747.260472190856	3573.543896968551	-391.3213336736018	-573.2251564601883	3648.084944803918	-583.0973632506564	-329.2561627675043	3632.419766269223	-662.9488715740138	-487.4049678494459	3374.0025488137517	-443.91184573054784	-577.1583763068497	3431.082662205592	-431.2377113874431	-584.4445755925523	3404.2302379793305	-406.25973550540334	-544.2337004328332	3365.1492732302904	-395.36850658294355	-637.7072191488817	3866.667280733799	-362.5480104364441	-401.5875022757966	3999.8457509127775	-323.0870902066406	-129.7046371654702	3996.0405353343817	-244.57694208402182	4.26202897548851	4026.392124414618	-255.2615253804289	19.144159229278912	3991.377912210299	-221.77968873378262	7.025527367492944	4012.4773675098586	-218.21586074277454
